<svg width="1200" height="628" version="1.1" viewBox="0 0 1200 628" xmlns="http://www.w3.org/2000/svg" xmlns:xlink="http://www.w3.org/1999/xlink">
 <defs>
  <linearGradient id="linearGradient2289">
   <stop stop-color="#40a" offset="0"/>
   <stop stop-color="#40a" stop-opacity="0" offset="1"/>
  </linearGradient>
  <linearGradient id="linearGradient2291" x1="-.00010338" x2="317.5" y1="83.079" y2="83.079" gradientTransform="matrix(3.7795 0 0 3.7795 .00042763 .0012221)" gradientUnits="userSpaceOnUse" xlink:href="#linearGradient2289"/>
  <linearGradient id="linearGradient95494" x1="-.00010338" x2="317.5" y1="83.079" y2="83.079" gradientTransform="matrix(4.8683 0 0 3.7795 -345.65 .001613)" gradientUnits="userSpaceOnUse" xlink:href="#linearGradient2289"/>
 </defs>
 <rect x=".10001" y=".10081" width="1199.8" height="627.8" fill="#fff" stroke="url(#linearGradient2291)" stroke-linecap="round" stroke-linejoin="round" stroke-width=".2"/>
 <path d="m891.64 0.10081c-119.17 48.538-231.71 100.29-246.84 118.63-31.259 37.885-31.812 399.8-0.66919 437.73 10.137 12.347 64.396 39.909 134.98 71.439h420.78v-627.8z" fill="#00002b" stroke="url(#linearGradient95494)" stroke-linecap="round" stroke-linejoin="round" stroke-width=".22699"/>
 <g transform="matrix(3.7795 0 0 3.7795 .00040339 -71.067)" fill="#fff">
  <g transform="matrix(.26458 0 0 .26458 -39.125 2.5694)" font-family="'Noto Sans'" font-size="160px" font-weight="100" style="line-height:1.25;shape-inside:url(#rect5106);white-space:pre" aria-label="Salut">
   <g transform="translate(-32 19)">
    <g transform="matrix(2.1686 0 0 2.1686 430.27 -88.073)">
     <text fill="#ffffff" font-family="'Noto Sans'" font-size="88.194px" font-weight="300" style="line-height:1.25;shape-inside:url(#rect875);white-space:pre" xml:space="preserve"/>
     <text fill="#ffffff" font-family="'Noto Sans'" font-size="4.2333px" font-weight="300" style="line-height:1.25;shape-inside:url(#rect881);white-space:pre" xml:space="preserve"/>
     <g transform="translate(1.3703 -30.162)" fill="#fff">
      <g transform="matrix(.52276 0 0 .52276 255.25 114.65)" fill="#fff">
       <g transform="translate(-10.315)" fill="#fff">
        <g fill="#fff" shape-rendering="auto" stroke-width=".26458" aria-label="ZORALAB">
         <path d="m116.57 100.74h-24.744v-1.3829l21.632-32.103h-20.398v-1.778h22.916v1.3829l-21.583 32.103h22.176z" color="#000000" color-rendering="auto" dominant-baseline="auto" image-rendering="auto" solid-color="#000000" stop-color="#000000" style="font-feature-settings:normal;font-variant-alternates:normal;font-variant-caps:normal;font-variant-east-asian:normal;font-variant-ligatures:normal;font-variant-numeric:normal;font-variant-position:normal;font-variation-settings:normal;inline-size:0;isolation:auto;mix-blend-mode:normal;shape-margin:0;shape-padding:0;text-decoration-color:#000000;text-decoration-line:none;text-decoration-style:solid;text-indent:0;text-orientation:mixed;text-transform:none;white-space:normal"/>
         <path d="m155.07 83.054c0 3.556-0.5762 6.7004-1.7286 9.4333s-2.8975 4.873-5.2352 6.4206c-2.3048 1.5475-5.2023 2.3213-8.6924 2.3213-3.4572 0-6.3547-0.77376-8.6924-2.3213-2.3048-1.5475-4.0334-3.6877-5.1858-6.4206s-1.7286-5.8937-1.7286-9.4827c0-3.556 0.59267-6.684 1.778-9.3839 1.2182-2.7329 3.0127-4.8566 5.3834-6.3712 2.3707-1.5475 5.2682-2.3213 8.6924-2.3213 4.9389 0 8.7418 1.6134 11.409 4.8401 2.667 3.1938 4.0005 7.6224 4.0005 13.286zm-29.288-0.04939c0 3.2267 0.49389 6.0748 1.4817 8.5443 0.98777 2.4694 2.4859 4.4121 4.4944 5.8279 2.0414 1.3829 4.6096 2.0743 7.7047 2.0743 3.095 0 5.6468-0.69144 7.6553-2.0743 2.0085-1.3829 3.4902-3.2926 4.445-5.7291 0.98777-2.4694 1.4817-5.334 1.4817-8.5937 0-5.1694-1.1524-9.1863-3.4572-12.051-2.2719-2.8646-5.5809-4.2968-9.9272-4.2968-3.128 0-5.7126 0.69144-7.7541 2.0743s-3.5725 3.3091-4.5932 5.7785c-1.0207 2.4365-1.5311 5.2517-1.5311 8.4455z" color="#000000" color-rendering="auto" dominant-baseline="auto" image-rendering="auto" solid-color="#000000" stop-color="#000000" style="font-feature-settings:normal;font-variant-alternates:normal;font-variant-caps:normal;font-variant-east-asian:normal;font-variant-ligatures:normal;font-variant-numeric:normal;font-variant-position:normal;font-variation-settings:normal;inline-size:0;isolation:auto;mix-blend-mode:normal;shape-margin:0;shape-padding:0;text-decoration-color:#000000;text-decoration-line:none;text-decoration-style:solid;text-indent:0;text-orientation:mixed;text-transform:none;white-space:normal"/>
         <path d="m174.11 65.472c4.1157 0 7.2437 0.69144 9.3839 2.0743 2.1402 1.35 3.2103 3.8194 3.2103 7.4083 0 2.667-0.70791 4.7907-2.1237 6.3712-1.4158 1.5475-3.309 2.6505-5.6797 3.3091l9.6802 16.101h-2.3213l-9.2851-15.558h-9.1863v15.558h-1.9262v-35.264zm-0.24695 1.778h-6.0748v16.2h7.4577c2.8646 0 5.1529-0.72437 6.8651-2.1731 1.7122-1.4817 2.5682-3.5725 2.5682-6.2724 0-2.9633-0.889-4.9883-2.667-6.0748-1.778-1.1195-4.4944-1.6792-8.1492-1.6792z" color="#000000" color-rendering="auto" dominant-baseline="auto" image-rendering="auto" solid-color="#000000" stop-color="#000000" style="font-feature-settings:normal;font-variant-alternates:normal;font-variant-caps:normal;font-variant-east-asian:normal;font-variant-ligatures:normal;font-variant-numeric:normal;font-variant-position:normal;font-variation-settings:normal;inline-size:0;isolation:auto;mix-blend-mode:normal;shape-margin:0;shape-padding:0;text-decoration-color:#000000;text-decoration-line:none;text-decoration-style:solid;text-indent:0;text-orientation:mixed;text-transform:none;white-space:normal"/>
         <path d="m219.48 100.74-4.9389-12.891h-15.064l-5.0377 12.891h-2.0249l13.878-35.362h1.8274l13.384 35.362zm-10.767-28.547c-0.16463-0.55974-0.39511-1.2347-0.69144-2.0249-0.29633-0.82315-0.59267-1.6628-0.889-2.5188-0.23048 0.79022-0.49389 1.5969-0.79022 2.4201-0.29633 0.79022-0.5762 1.4981-0.83961 2.1237l-5.334 13.878h13.681z" color="#000000" color-rendering="auto" dominant-baseline="auto" image-rendering="auto" solid-color="#000000" stop-color="#000000" style="font-feature-settings:normal;font-variant-alternates:normal;font-variant-caps:normal;font-variant-east-asian:normal;font-variant-ligatures:normal;font-variant-numeric:normal;font-variant-position:normal;font-variation-settings:normal;inline-size:0;isolation:auto;mix-blend-mode:normal;shape-margin:0;shape-padding:0;text-decoration-color:#000000;text-decoration-line:none;text-decoration-style:solid;text-indent:0;text-orientation:mixed;text-transform:none;white-space:normal"/>
         <path d="m229.24 100.74v-35.264h1.9262v33.486h17.187v1.778z" color="#000000" color-rendering="auto" dominant-baseline="auto" image-rendering="auto" solid-color="#000000" stop-color="#000000" style="font-feature-settings:normal;font-variant-alternates:normal;font-variant-caps:normal;font-variant-east-asian:normal;font-variant-ligatures:normal;font-variant-numeric:normal;font-variant-position:normal;font-variation-settings:normal;inline-size:0;isolation:auto;mix-blend-mode:normal;shape-margin:0;shape-padding:0;text-decoration-color:#000000;text-decoration-line:none;text-decoration-style:solid;text-indent:0;text-orientation:mixed;text-transform:none;white-space:normal"/>
         <path d="m279.1 100.74-4.9389-12.891h-15.064l-5.0377 12.891h-2.025l13.878-35.362h1.8274l13.384 35.362zm-10.767-28.547c-0.16463-0.55974-0.39511-1.2347-0.69144-2.0249-0.29633-0.82315-0.59267-1.6628-0.889-2.5188-0.23049 0.79022-0.4939 1.5969-0.79023 2.4201-0.29633 0.79022-0.5762 1.4981-0.83961 2.1237l-5.334 13.878h13.681z" color="#000000" color-rendering="auto" dominant-baseline="auto" image-rendering="auto" solid-color="#000000" stop-color="#000000" style="font-feature-settings:normal;font-variant-alternates:normal;font-variant-caps:normal;font-variant-east-asian:normal;font-variant-ligatures:normal;font-variant-numeric:normal;font-variant-position:normal;font-variation-settings:normal;inline-size:0;isolation:auto;mix-blend-mode:normal;shape-margin:0;shape-padding:0;text-decoration-color:#000000;text-decoration-line:none;text-decoration-style:solid;text-indent:0;text-orientation:mixed;text-transform:none;white-space:normal"/>
         <path d="m298.39 65.472c4.3462 0 7.4906 0.69144 9.4333 2.0743 1.9756 1.3829 2.9633 3.5395 2.9633 6.4699 0 2.0085-0.59267 3.77-1.778 5.2846-1.1853 1.4817-2.8975 2.4201-5.1364 2.8152v0.09878c2.7658 0.42804 4.7578 1.3664 5.9761 2.8152 1.2512 1.4487 1.8768 3.342 1.8768 5.6797 0 2.3707-0.54328 4.2968-1.6298 5.7785-1.0536 1.4487-2.5188 2.5188-4.3956 3.2103-1.8768 0.69144-4.0334 1.0372-6.47 1.0372h-10.372v-35.264zm0.54328 15.903c3.3914 0 5.8773-0.60913 7.4577-1.8274 1.5804-1.2183 2.3707-3.0127 2.3707-5.3834 0-2.4694-0.82315-4.231-2.4694-5.2846-1.6463-1.0866-4.2968-1.6298-7.9516-1.6298h-7.5565v14.125zm-8.1492 1.7286v15.903h8.5937c3.3255 0 5.8773-0.67498 7.6553-2.0249 1.778-1.3829 2.667-3.4901 2.667-6.3218 0-2.7987-0.93839-4.7578-2.8152-5.8773-1.8768-1.1195-4.5438-1.6792-8.001-1.6792z" color="#000000" color-rendering="auto" dominant-baseline="auto" image-rendering="auto" solid-color="#000000" stop-color="#000000" style="font-feature-settings:normal;font-variant-alternates:normal;font-variant-caps:normal;font-variant-east-asian:normal;font-variant-ligatures:normal;font-variant-numeric:normal;font-variant-position:normal;font-variation-settings:normal;inline-size:0;isolation:auto;mix-blend-mode:normal;shape-margin:0;shape-padding:0;text-decoration-color:#000000;text-decoration-line:none;text-decoration-style:solid;text-indent:0;text-orientation:mixed;text-transform:none;white-space:normal"/>
        </g>
       </g>
      </g>
     </g>
    </g>
    <g aria-label="Fonts">
     <path d="m929.26 354.44h-26.88v-114.24h66.4v22.08h-39.52v25.92h36.64v22.08h-36.64z"/>
     <path d="m1069.3 310.28q0 22.08-11.68 33.92-11.52 11.84-31.68 11.84-12.48 0-22.24-5.28-9.6-5.44-15.2-15.52-5.44-10.24-5.44-24.96 0-21.76 11.52-33.44 11.68-11.84 31.84-11.84 12.48 0 22.08 5.28 9.76 5.28 15.2 15.36 5.6 10.08 5.6 24.64zm-58.88 0q0 12.32 3.68 18.72 3.68 6.24 12.16 6.24 8.32 0 12-6.24 3.68-6.4 3.68-18.72 0-12.16-3.68-18.24-3.68-6.24-12.16-6.24-8.32 0-12 6.24-3.68 6.08-3.68 18.24z"/>
     <path d="m1140.1 265q13.92 0 22.4 7.68 8.64 7.52 8.64 24.48v57.28h-26.88v-49.76q0-9.12-3.04-13.76t-9.6-4.64q-9.76 0-13.28 7.36-3.52 7.2-3.52 20.8v40h-27.04v-87.84h20.48l3.68 11.36h1.28q4.16-6.4 11.2-9.6 7.04-3.36 15.68-3.36z"/>
     <path d="m1233.7 334.6q4 0 7.52-0.8 3.68-0.8 7.36-2.08v19.84q-4.32 1.92-9.92 3.2t-13.28 1.28q-8.16 0-14.56-2.56-6.24-2.72-9.92-9.12-3.52-6.4-3.52-18.08v-39.52h-11.2v-11.2l13.44-8.64 7.36-18.56h17.28v18.24h23.36v20.16h-23.36v38.56q0 4.64 2.56 7.04 2.56 2.24 6.88 2.24z"/>
     <path d="m1328.5 327.88q0 12.96-9.12 20.64-8.96 7.52-28.16 7.52-9.28 0-16.32-1.12-6.88-1.12-13.92-4v-21.76q7.68 3.52 16 5.44 8.32 1.76 14.08 1.76 6.08 0 8.8-1.6t2.72-4.48q0-2.08-1.44-3.68-1.28-1.6-5.44-3.52-4-2.08-12-5.44-7.84-3.36-12.96-6.88-4.96-3.52-7.52-8.32-2.4-4.96-2.4-12.32 0-12.48 9.6-18.72 9.76-6.4 25.76-6.4 8.48 0 16 1.76t15.52 5.44l-7.68 18.24q-6.56-2.88-12.8-4.64-6.08-1.76-11.04-1.76-9.28 0-9.28 4.8 0 1.76 1.28 3.36 1.44 1.44 5.28 3.2 4 1.76 11.52 4.96 7.52 3.04 12.8 6.56 5.28 3.36 8 8.32t2.72 12.64z"/>
    </g>
    <g aria-label="Express and Improve Freely">
     <path d="m944.69 441.86h-16.94v-31.416h16.94v1.1h-15.796v13.2h14.916v1.1h-14.916v14.916h15.796z"/>
     <path d="m957.05 429.89-8.14-11.264h1.452l7.436 10.472 7.436-10.472h1.408l-8.052 11.264 8.58 11.968h-1.408l-7.964-11.132-7.876 11.132h-1.364z"/>
     <path d="m982.27 418.18q4.62 0 6.996 3.036 2.376 2.992 2.376 8.8 0 5.852-2.596 9.064-2.552 3.212-7.216 3.212-3.476 0-5.456-1.628t-2.728-3.916h-0.088q0.088 1.496 0.088 2.948 0 1.408 0 2.816v9.548h-1.144v-33.44h0.968l0.088 5.544h0.088q0.484-1.54 1.584-2.904t2.86-2.2q1.76-0.88 4.18-0.88zm0 1.1q-4.224 0-6.424 2.904-2.2 2.86-2.2 8.008v0.132q0 5.588 2.2 8.228 2.244 2.64 5.984 2.64 4.048 0 6.336-2.816t2.288-8.36q0-5.456-2.068-8.096t-6.116-2.64z"/>
     <path d="m1006.4 418.27q1.056 0 1.892 0.132 0.88 0.132 1.672 0.352l-0.264 1.056q-0.836-0.22-1.584-0.308-0.704-0.132-1.716-0.132-3.652 0-5.368 2.552-1.716 2.552-1.716 6.864v13.068h-1.144v-23.232h1.056l0.088 4.444h0.088q0.616-2.024 2.376-3.388 1.804-1.408 4.62-1.408z"/>
     <path d="m1022.4 418.18q2.992 0 4.84 1.452t2.728 3.916q0.88 2.42 0.88 5.5v1.1h-17.292q-0.044 5.324 2.332 8.184t6.908 2.86q2.112 0 3.608-0.308 1.54-0.308 3.564-1.232v1.188q-1.672 0.748-3.388 1.1-1.672 0.352-3.784 0.352-3.652 0-5.984-1.54-2.288-1.54-3.388-4.224-1.056-2.684-1.056-6.072 0-3.3 1.1-6.072 1.1-2.816 3.3-4.488 2.244-1.716 5.632-1.716zm0 1.1q-3.696 0-6.072 2.508-2.332 2.464-2.728 7.26h16.06q0.044-4.356-1.76-7.04-1.804-2.728-5.5-2.728z"/>
     <path d="m1051.6 435.96q0 2.948-2.2 4.664-2.156 1.672-6.512 1.672-2.42 0-4.4-0.44-1.98-0.484-3.256-1.056v-1.32q3.52 1.716 7.656 1.716 4.004 0 5.764-1.408t1.76-3.828q0-1.716-0.968-2.728-0.924-1.056-2.552-1.672-1.584-0.66-3.52-1.232-2.024-0.616-3.74-1.232-1.672-0.66-2.684-1.804-0.968-1.188-0.968-3.344 0-2.728 2.156-4.224 2.156-1.54 5.852-1.54 2.068 0 3.872 0.396 1.804 0.352 3.168 0.924l-0.484 1.1q-1.232-0.616-3.036-0.968-1.76-0.352-3.52-0.352-3.168 0-5.016 1.188-1.804 1.144-1.804 3.476 0 1.804 0.88 2.772 0.924 0.924 2.42 1.452 1.54 0.528 3.3 1.1 1.936 0.616 3.74 1.32t2.948 1.936q1.144 1.188 1.144 3.432z"/>
     <path d="m1071.8 435.96q0 2.948-2.2 4.664-2.156 1.672-6.512 1.672-2.42 0-4.4-0.44-1.98-0.484-3.256-1.056v-1.32q3.52 1.716 7.656 1.716 4.004 0 5.764-1.408t1.76-3.828q0-1.716-0.968-2.728-0.924-1.056-2.552-1.672-1.584-0.66-3.52-1.232-2.024-0.616-3.74-1.232-1.672-0.66-2.684-1.804-0.968-1.188-0.968-3.344 0-2.728 2.156-4.224 2.156-1.54 5.852-1.54 2.068 0 3.872 0.396 1.804 0.352 3.168 0.924l-0.484 1.1q-1.232-0.616-3.036-0.968-1.76-0.352-3.52-0.352-3.168 0-5.016 1.188-1.804 1.144-1.804 3.476 0 1.804 0.88 2.772 0.924 0.924 2.42 1.452 1.54 0.528 3.3 1.1 1.936 0.616 3.74 1.32t2.948 1.936q1.144 1.188 1.144 3.432z"/>
     <path d="m1096.9 418.23q3.608 0 5.412 1.98 1.804 1.936 1.804 6.248v15.4h-0.968l-0.176-4.532h-0.088q-0.924 2.024-2.904 3.52-1.98 1.452-5.544 1.452-3.476 0-5.28-1.672-1.76-1.672-1.76-4.444 0-3.476 2.904-5.192 2.948-1.76 8.14-2.068l4.532-0.264v-1.892q0-3.96-1.496-5.676-1.496-1.76-4.576-1.76-1.76 0-3.432 0.396-1.628 0.396-3.52 1.364l-0.396-1.144q1.76-0.792 3.564-1.232 1.848-0.484 3.784-0.484zm1.628 11.748q-4.488 0.22-7.216 1.672-2.684 1.452-2.684 4.532 0 2.332 1.496 3.696 1.496 1.32 4.312 1.32 4.4 0 6.424-2.508 2.068-2.508 2.112-6.512v-2.42z"/>
     <path d="m1121.3 418.18q3.784 0 5.852 2.068t2.068 6.38v15.224h-1.144v-15.18q0-3.872-1.804-5.632-1.76-1.76-4.972-1.76-3.784 0-6.16 2.288-2.332 2.244-2.332 6.996v13.288h-1.144v-23.232h0.924l0.176 4.884h0.088q0.528-1.364 1.54-2.552 1.056-1.232 2.728-1.98 1.716-0.792 4.18-0.792z"/>
     <path d="m1145.4 442.3q-5.016 0-7.436-2.992t-2.42-8.624q0-6.028 2.64-9.24 2.64-3.256 7.568-3.256 3.168 0 5.104 1.584 1.98 1.54 2.684 3.872h0.088q-0.044-1.496-0.088-2.904 0-1.408 0-2.772v-9.548h1.144v33.44h-0.968l-0.088-4.972h-0.088q-0.792 2.2-2.728 3.828-1.936 1.584-5.412 1.584zm0-1.1q4.4 0 6.248-2.86 1.892-2.904 1.892-8.052v-0.132q0-5.28-1.936-8.052-1.936-2.816-5.852-2.816-4.356 0-6.688 2.86-2.332 2.816-2.332 8.536 0 5.28 2.112 7.92 2.156 2.596 6.556 2.596z"/>
     <path d="m1179.9 441.86h-7.128v-0.88l2.992-0.132v-29.348l-2.992-0.176v-0.88h7.128v0.88l-2.992 0.176v29.348l2.992 0.132z"/>
     <path d="m1209.5 418.18q2.992 0 4.928 1.892t1.936 5.896v15.884h-1.144v-15.84q0-3.52-1.672-5.104-1.628-1.628-4.048-1.628-3.3 0-5.412 1.936-2.112 1.892-2.112 6.336v14.3h-1.144v-15.84q0-3.52-1.672-5.104-1.628-1.628-4.048-1.628-2.024 0-3.74 0.836t-2.772 2.684q-1.012 1.804-1.012 4.752v14.3h-1.144v-23.232h0.924l0.176 4.224h0.088q0.484-1.1 1.364-2.156t2.376-1.76q1.496-0.748 3.74-0.748 2.42 0 4.136 1.232t2.288 3.564h0.088q0.836-2.156 2.772-3.476 1.98-1.32 5.104-1.32z"/>
     <path d="m1233.8 418.18q4.62 0 6.996 3.036 2.376 2.992 2.376 8.8 0 5.852-2.596 9.064-2.552 3.212-7.216 3.212-3.476 0-5.456-1.628t-2.728-3.916h-0.088q0.088 1.496 0.088 2.948 0 1.408 0 2.816v9.548h-1.144v-33.44h0.968l0.088 5.544h0.088q0.484-1.54 1.584-2.904t2.86-2.2q1.76-0.88 4.18-0.88zm0 1.1q-4.224 0-6.424 2.904-2.2 2.86-2.2 8.008v0.132q0 5.588 2.2 8.228 2.244 2.64 5.984 2.64 4.048 0 6.336-2.816t2.288-8.36q0-5.456-2.068-8.096t-6.116-2.64z"/>
     <path d="m1257.9 418.27q1.056 0 1.892 0.132 0.88 0.132 1.672 0.352l-0.264 1.056q-0.836-0.22-1.584-0.308-0.704-0.132-1.716-0.132-3.652 0-5.368 2.552t-1.716 6.864v13.068h-1.144v-23.232h1.056l0.088 4.444h0.088q0.616-2.024 2.376-3.388 1.804-1.408 4.62-1.408z"/>
     <path d="m1283.9 430.24q0 3.388-1.1 6.16-1.056 2.728-3.3 4.312-2.2 1.584-5.676 1.584-3.344 0-5.588-1.584-2.2-1.584-3.3-4.312t-1.1-6.16q0-5.544 2.684-8.8 2.728-3.256 7.568-3.256 3.52 0 5.676 1.628 2.156 1.584 3.124 4.312 1.012 2.728 1.012 6.116zm-18.876 0q0 3.212 0.968 5.72 0.968 2.464 2.904 3.872 1.98 1.364 4.928 1.364 3.08 0 5.016-1.408 1.98-1.408 2.904-3.872 0.968-2.508 0.968-5.676 0-3.036-0.88-5.5-0.836-2.508-2.728-3.96-1.892-1.496-5.016-1.496-4.356 0-6.732 2.904-2.332 2.904-2.332 8.052z"/>
     <path d="m1294.7 441.86-8.976-23.232h1.188l6.6 17.16q0.572 1.408 0.924 2.42 0.352 0.968 0.704 2.068h0.088q0.396-1.1 0.704-2.068 0.352-1.012 0.924-2.42l6.6-17.16h1.188l-8.976 23.232z"/>
     <path d="m1317.2 418.18q2.992 0 4.84 1.452t2.728 3.916q0.88 2.42 0.88 5.5v1.1h-17.292q-0.044 5.324 2.332 8.184t6.908 2.86q2.112 0 3.608-0.308 1.54-0.308 3.564-1.232v1.188q-1.672 0.748-3.388 1.1-1.672 0.352-3.784 0.352-3.652 0-5.984-1.54-2.288-1.54-3.388-4.224-1.056-2.684-1.056-6.072 0-3.3 1.1-6.072 1.1-2.816 3.3-4.488 2.244-1.716 5.632-1.716zm0 1.1q-3.696 0-6.072 2.508-2.332 2.464-2.728 7.26h16.06q0.044-4.356-1.76-7.04-1.804-2.728-5.5-2.728z"/>
     <path d="m1221.3 496.86h-1.144v-31.416h16.984v1.1h-15.84v14.74h15.004v1.1h-15.004z"/>
     <path d="m1249.5 473.27q1.056 0 1.892 0.132 0.88 0.132 1.672 0.352l-0.264 1.056q-0.836-0.22-1.584-0.308-0.704-0.132-1.716-0.132-3.652 0-5.368 2.552t-1.716 6.864v13.068h-1.144v-23.232h1.056l0.088 4.444h0.088q0.616-2.024 2.376-3.388 1.804-1.408 4.62-1.408z"/>
     <path d="m1265.5 473.18q2.992 0 4.84 1.452t2.728 3.916q0.88 2.42 0.88 5.5v1.1h-17.292q-0.044 5.324 2.332 8.184t6.908 2.86q2.112 0 3.608-0.308 1.54-0.308 3.564-1.232v1.188q-1.672 0.748-3.388 1.1-1.672 0.352-3.784 0.352-3.652 0-5.984-1.54-2.288-1.54-3.388-4.224-1.056-2.684-1.056-6.072 0-3.3 1.1-6.072 1.1-2.816 3.3-4.488 2.244-1.716 5.632-1.716zm0 1.1q-3.696 0-6.072 2.508-2.332 2.464-2.728 7.26h16.06q0.044-4.356-1.76-7.04-1.804-2.728-5.5-2.728z"/>
     <path d="m1289.3 473.18q2.992 0 4.84 1.452t2.728 3.916q0.88 2.42 0.88 5.5v1.1h-17.292q-0.044 5.324 2.332 8.184t6.908 2.86q2.112 0 3.608-0.308 1.54-0.308 3.564-1.232v1.188q-1.672 0.748-3.388 1.1-1.672 0.352-3.784 0.352-3.652 0-5.984-1.54-2.288-1.54-3.388-4.224-1.056-2.684-1.056-6.072 0-3.3 1.1-6.072 1.1-2.816 3.3-4.488 2.244-1.716 5.632-1.716zm0 1.1q-3.696 0-6.072 2.508-2.332 2.464-2.728 7.26h16.06q0.044-4.356-1.76-7.04-1.804-2.728-5.5-2.728z"/>
     <path d="m1305.6 496.86h-1.144v-33.44h1.144z"/>
     <path d="m1309.5 473.62h1.188l6.028 15.664q0.792 2.112 1.32 3.564 0.572 1.452 0.88 2.376h0.088q0.352-0.968 0.836-2.376 0.528-1.408 1.276-3.388l6.116-15.84h1.188l-10.956 28.292q-1.1 2.86-2.42 4.224-1.276 1.408-3.432 1.408-1.188 0-2.376-0.44v-1.144q0.616 0.22 1.144 0.352t1.232 0.132q1.672 0 2.728-1.144 1.1-1.144 2.2-3.96l1.804-4.752z"/>
    </g>
    <g transform="matrix(.48908 0 0 .48908 501.88 -197.84)">
     <g transform="translate(-658.39 533.15)">
      <circle cx="600" cy="600" r="575.41" fill="#fff" stroke="#000080" stroke-linecap="round" stroke-linejoin="round" stroke-width="49.17"/>
      <g transform="translate(0 66.292)" fill="#00112b" stroke="#0f0" stroke-width="15" aria-label="字">
       <path d="m545.96 274.95q13.2 0 57.2 30.8 44 30.8 46.933 42.533 10.267 30.8-5.8667 71.867-14.667 41.067-49.867 80.667-46.933 49.867-68.934 82.134l-22 32.267 45.467 32.267 45.467 29.333 77.734-16.133q77.734-14.667 104.13-24.933 17.6-7.3334 29.333-5.8667t32.267 16.133q35.2 19.067 49.867 19.067 13.2 0 35.2 26.4 22 24.933 22 41.067 0 14.667-51.333 14.667-49.867 0-123.2 16.133-71.867 14.667-90.934 19.067-14.667 2.9333-17.6 19.067-2.9333 14.667-2.9333 83.6 0 70.4-4.4 90.934t-27.867 57.2q-32.267 51.334-67.467 68.934-24.933 13.2-44 13.2-17.6 0-79.2-11.733-88-16.133-121.73-16.133-61.6 0-92.4-80.667-11.733-35.2-51.333-52.8-45.467-19.067-98.267-60.133-51.333-41.067-48.4-54.267 1.4667-13.2 92.4-36.667 92.4-24.933 151.07-42.533l60.133-19.067v-70.4q0-51.333 4.4-63.067t27.867-23.467q33.733-14.667 49.867-27.867 16.133-16.133 60.133-89.467 45.467-74.8 41.067-79.2-7.3334-7.3334-49.867 35.2-48.4 48.4-98.267 64.533t-73.334-7.3334q-22-22-13.2-38.133 10.267-16.133 51.333-35.2 55.733-23.467 133.47-77.734t85.067-54.267zm-17.6 528-49.867-4.4q-49.867-1.4667-105.6 22-55.733 22-115.87 41.067-42.533 13.2-63.067 22-20.533 8.8-26.4 19.067-4.4 8.8 5.8667 19.067 11.733 10.267 38.133 23.467 45.467 23.467 86.534 54.267 33.733 24.933 54.267 27.867 20.533 1.4667 86.534-16.133 64.533-16.133 79.2-38.133 16.133-23.467 13.2-98.267zm-413.6-555.87q42.533-61.6 49.867-61.6 17.6 0-7.3334 48.4-35.2 68.933-41.067 92.4-4.4 22 1.4667 76.267 4.4 44 2.9333 60.133-1.4667 14.667-11.733 22-17.6 14.667-29.333 4.4-10.267-11.733-17.6-52.8-19.067-79.2 52.8-189.2zm514.8-217.07q89.467-35.2 112.93-35.2 19.067 0 61.6 24.933 44 23.467 58.667 44 27.867 35.2-5.8667 67.467-33.733 30.8-124.67 52.8-89.467 20.533-114.4 20.533-14.667 0-14.667-4.4 1.4667-7.3334 45.467-46.933 55.733-51.333 49.867-58.667-7.3334-16.133-93.867 13.2-85.067 29.333-143.73 70.4-64.533 44-96.8 52.8-32.267 7.3334-52.8-13.2-7.3334-7.3334-14.667-22-5.8667-16.133-10.267-27.867-2.9333-13.2 1.4667-13.2 2.9333 0 143.73-51.333 142.27-51.333 198-73.334zm-247.87-64.533q-14.667-14.667-2.9333-13.2 24.933 1.4667 58.667 33.733 33.733 26.4 33.733 42.533 1.4667 14.667-24.933 33.733-39.6 27.867-70.4 11.733-27.867-16.133 2.9333-39.6 13.2-11.733 13.2-33.733 1.4667-23.467-10.267-35.2z" stroke="#0f0" stroke-width="15"/>
      </g>
      <g transform="matrix(5.2461 0 0 5.2461 -241.18 1270.3)">
       <g transform="translate(-17.373)">
        <g transform="translate(-6.363 .68094)">
         <g transform="matrix(.28965 0 0 .28965 212.27 -252.94)" shape-rendering="auto">
          <path d="m210.21 51.287c-6.0852-5.1999-15.343-4.0676-20.327 1.7728l-120.08 140.74c-4.9831 5.8405-4.6485 15.167 1.4366 20.367 6.0852 5.1999 15.344 4.0704 20.327-1.7701l120.08-140.74c4.9831-5.8405 4.6483-15.17-1.4368-20.37z" color="#000000" color-rendering="auto" dominant-baseline="auto" fill="#000080" image-rendering="auto" opacity=".99" solid-color="#000000" stop-color="#000000" style="font-feature-settings:normal;font-variant-alternates:normal;font-variant-caps:normal;font-variant-east-asian:normal;font-variant-ligatures:normal;font-variant-numeric:normal;font-variant-position:normal;font-variation-settings:normal;inline-size:0;isolation:auto;mix-blend-mode:normal;shape-margin:0;shape-padding:0;text-decoration-color:#000000;text-decoration-line:none;text-decoration-style:solid;text-indent:0;text-orientation:mixed;text-transform:none;white-space:normal"/>
          <path d="m90.003 47.53c-7.9017 0-14.553 6.6511-14.553 14.553 0 7.9017 6.6511 14.551 14.553 14.551h110.64c7.9017 0 14.551-6.6491 14.551-14.551s-6.6491-14.553-14.551-14.553z" color="#000000" color-rendering="auto" dominant-baseline="auto" fill="#00f" image-rendering="auto" opacity=".99" solid-color="#000000" stop-color="#000000" style="font-feature-settings:normal;font-variant-alternates:normal;font-variant-caps:normal;font-variant-east-asian:normal;font-variant-ligatures:normal;font-variant-numeric:normal;font-variant-position:normal;font-variation-settings:normal;inline-size:0;isolation:auto;mix-blend-mode:normal;shape-margin:0;shape-padding:0;text-decoration-color:#000000;text-decoration-line:none;text-decoration-style:solid;text-indent:0;text-orientation:mixed;text-transform:none;white-space:normal"/>
          <path d="m81.145 188.74c-8.0454 0-14.815 6.6491-14.815 14.551 0 7.9017 6.7701 14.553 14.815 14.553h118.54c8.0454 0 14.815-6.6511 14.815-14.553 0-7.9017-6.7701-14.551-14.815-14.551z" color="#000000" color-rendering="auto" dominant-baseline="auto" fill="#00002b" image-rendering="auto" opacity=".99" solid-color="#000000" stop-color="#000000" style="font-feature-settings:normal;font-variant-alternates:normal;font-variant-caps:normal;font-variant-east-asian:normal;font-variant-ligatures:normal;font-variant-numeric:normal;font-variant-position:normal;font-variation-settings:normal;inline-size:0;isolation:auto;mix-blend-mode:normal;shape-margin:0;shape-padding:0;text-decoration-color:#000000;text-decoration-line:none;text-decoration-style:solid;text-indent:0;text-orientation:mixed;text-transform:none;white-space:normal"/>
          <path d="m117.98 240.87c-8.3489 0-15.376 6.6511-15.376 14.553 0 7.9017 7.0275 14.551 15.376 14.551h117.42c8.3489 0 15.376-6.6491 15.376-14.551 0-7.9017-7.0275-14.553-15.376-14.553z" color="#000000" color-rendering="auto" dominant-baseline="auto" fill="#002b00" image-rendering="auto" opacity=".99" solid-color="#000000" stop-color="#000000" style="font-feature-settings:normal;font-variant-alternates:normal;font-variant-caps:normal;font-variant-east-asian:normal;font-variant-ligatures:normal;font-variant-numeric:normal;font-variant-position:normal;font-variation-settings:normal;inline-size:0;isolation:auto;mix-blend-mode:normal;shape-margin:0;shape-padding:0;text-decoration-color:#000000;text-decoration-line:none;text-decoration-style:solid;text-indent:0;text-orientation:mixed;text-transform:none;white-space:normal"/>
          <path d="m246.28 103.71c-6.0852-5.1999-15.343-4.0676-20.327 1.7728l-120.08 140.74c-4.9831 5.8405-4.6486 15.167 1.4366 20.367 6.0852 5.1999 15.344 4.0704 20.327-1.7701l120.08-140.74c4.9831-5.8405 4.6483-15.17-1.4368-20.37z" color="#000000" color-rendering="auto" dominant-baseline="auto" fill="#0f0" image-rendering="auto" opacity=".99" solid-color="#000000" stop-color="#000000" style="font-feature-settings:normal;font-variant-alternates:normal;font-variant-caps:normal;font-variant-east-asian:normal;font-variant-ligatures:normal;font-variant-numeric:normal;font-variant-position:normal;font-variation-settings:normal;inline-size:0;isolation:auto;mix-blend-mode:normal;shape-margin:0;shape-padding:0;text-decoration-color:#000000;text-decoration-line:none;text-decoration-style:solid;text-indent:0;text-orientation:mixed;text-transform:none;white-space:normal"/>
         </g>
        </g>
       </g>
      </g>
      <text font-family="FreeSerif" font-size="10.583px" style="line-height:1.25;shape-inside:url(#rect1483-37);white-space:pre" xml:space="preserve"/>
      <text font-family="FreeSerif" font-size="10.583px" style="line-height:1.25;shape-inside:url(#rect1489-2);white-space:pre" xml:space="preserve"/>
     </g>
    </g>
   </g>
  </g>
 </g>
 <text fill="#ffffff" font-family="'Noto Sans'" font-size="13.333px" font-weight="100" style="line-height:1.25;shape-inside:url(#rect74026);white-space:pre" xml:space="preserve"/>
 <g font-family="FreeSerif">
  <text transform="translate(-1.8905 13.956)" x="110.17236" font-size="31.75px" style="line-height:1.25;shape-inside:url(#rect1477);white-space:pre" xml:space="preserve"/>
  <g font-size="10.583px">
   <text style="line-height:1.25;shape-inside:url(#rect1483);white-space:pre" xml:space="preserve"/>
   <text style="line-height:1.25;shape-inside:url(#rect1489);white-space:pre" xml:space="preserve"/>
   <text transform="matrix(.52333 0 0 .52333 -1.5097e-6 -4.071e-6)" style="line-height:1.25;shape-inside:url(#rect1483-3);white-space:pre" xml:space="preserve"/>
   <text transform="matrix(.52333 0 0 .52333 -1.5097e-6 -4.071e-6)" style="line-height:1.25;shape-inside:url(#rect1489-5);white-space:pre" xml:space="preserve"/>
  </g>
 </g>
</svg>
