<svg width="1200" height="1200" version="1.1" viewBox="0 0 1200 1200" xmlns="http://www.w3.org/2000/svg">
 <circle cx="600" cy="600" r="575.41" fill="#fff" stroke="#000080" stroke-linecap="round" stroke-linejoin="round" stroke-width="49.17"/>
 <g transform="translate(0 66.292)" fill="#00112b" stroke="#0f0" stroke-width="15" aria-label="字">
  <path d="m545.96 274.95q13.2 0 57.2 30.8 44 30.8 46.933 42.533 10.267 30.8-5.8667 71.867-14.667 41.067-49.867 80.667-46.933 49.867-68.934 82.134l-22 32.267 45.467 32.267 45.467 29.333 77.734-16.133q77.734-14.667 104.13-24.933 17.6-7.3334 29.333-5.8667t32.267 16.133q35.2 19.067 49.867 19.067 13.2 0 35.2 26.4 22 24.933 22 41.067 0 14.667-51.333 14.667-49.867 0-123.2 16.133-71.867 14.667-90.934 19.067-14.667 2.9333-17.6 19.067-2.9333 14.667-2.9333 83.6 0 70.4-4.4 90.934t-27.867 57.2q-32.267 51.334-67.467 68.934-24.933 13.2-44 13.2-17.6 0-79.2-11.733-88-16.133-121.73-16.133-61.6 0-92.4-80.667-11.733-35.2-51.333-52.8-45.467-19.067-98.267-60.133-51.333-41.067-48.4-54.267 1.4667-13.2 92.4-36.667 92.4-24.933 151.07-42.533l60.133-19.067v-70.4q0-51.333 4.4-63.067t27.867-23.467q33.733-14.667 49.867-27.867 16.133-16.133 60.133-89.467 45.467-74.8 41.067-79.2-7.3334-7.3334-49.867 35.2-48.4 48.4-98.267 64.533t-73.334-7.3334q-22-22-13.2-38.133 10.267-16.133 51.333-35.2 55.733-23.467 133.47-77.734t85.067-54.267zm-17.6 528-49.867-4.4q-49.867-1.4667-105.6 22-55.733 22-115.87 41.067-42.533 13.2-63.067 22-20.533 8.8-26.4 19.067-4.4 8.8 5.8667 19.067 11.733 10.267 38.133 23.467 45.467 23.467 86.534 54.267 33.733 24.933 54.267 27.867 20.533 1.4667 86.534-16.133 64.533-16.133 79.2-38.133 16.133-23.467 13.2-98.267zm-413.6-555.87q42.533-61.6 49.867-61.6 17.6 0-7.3334 48.4-35.2 68.933-41.067 92.4-4.4 22 1.4667 76.267 4.4 44 2.9333 60.133-1.4667 14.667-11.733 22-17.6 14.667-29.333 4.4-10.267-11.733-17.6-52.8-19.067-79.2 52.8-189.2zm514.8-217.07q89.467-35.2 112.93-35.2 19.067 0 61.6 24.933 44 23.467 58.667 44 27.867 35.2-5.8667 67.467-33.733 30.8-124.67 52.8-89.467 20.533-114.4 20.533-14.667 0-14.667-4.4 1.4667-7.3334 45.467-46.933 55.733-51.333 49.867-58.667-7.3334-16.133-93.867 13.2-85.067 29.333-143.73 70.4-64.533 44-96.8 52.8-32.267 7.3334-52.8-13.2-7.3334-7.3334-14.667-22-5.8667-16.133-10.267-27.867-2.9333-13.2 1.4667-13.2 2.9333 0 143.73-51.333 142.27-51.333 198-73.334zm-247.87-64.533q-14.667-14.667-2.9333-13.2 24.933 1.4667 58.667 33.733 33.733 26.4 33.733 42.533 1.4667 14.667-24.933 33.733-39.6 27.867-70.4 11.733-27.867-16.133 2.9333-39.6 13.2-11.733 13.2-33.733 1.4667-23.467-10.267-35.2z" stroke="#0f0" stroke-width="15"/>
 </g>
 <g transform="matrix(5.2461 0 0 5.2461 -241.18 1270.3)">
  <g transform="translate(-17.373)">
   <g transform="translate(-6.363 .68094)">
    <g transform="matrix(.28965 0 0 .28965 212.27 -252.94)" shape-rendering="auto">
     <path d="m210.21 51.287c-6.0852-5.1999-15.343-4.0676-20.327 1.7728l-120.08 140.74c-4.9831 5.8405-4.6485 15.167 1.4366 20.367 6.0852 5.1999 15.344 4.0704 20.327-1.7701l120.08-140.74c4.9831-5.8405 4.6483-15.17-1.4368-20.37z" color="#000000" color-rendering="auto" dominant-baseline="auto" fill="#000080" image-rendering="auto" opacity=".99" solid-color="#000000" stop-color="#000000" style="font-feature-settings:normal;font-variant-alternates:normal;font-variant-caps:normal;font-variant-east-asian:normal;font-variant-ligatures:normal;font-variant-numeric:normal;font-variant-position:normal;font-variation-settings:normal;inline-size:0;isolation:auto;mix-blend-mode:normal;shape-margin:0;shape-padding:0;text-decoration-color:#000000;text-decoration-line:none;text-decoration-style:solid;text-indent:0;text-orientation:mixed;text-transform:none;white-space:normal"/>
     <path d="m90.003 47.53c-7.9017 0-14.553 6.6511-14.553 14.553 0 7.9017 6.6511 14.551 14.553 14.551h110.64c7.9017 0 14.551-6.6491 14.551-14.551s-6.6491-14.553-14.551-14.553z" color="#000000" color-rendering="auto" dominant-baseline="auto" fill="#00f" image-rendering="auto" opacity=".99" solid-color="#000000" stop-color="#000000" style="font-feature-settings:normal;font-variant-alternates:normal;font-variant-caps:normal;font-variant-east-asian:normal;font-variant-ligatures:normal;font-variant-numeric:normal;font-variant-position:normal;font-variation-settings:normal;inline-size:0;isolation:auto;mix-blend-mode:normal;shape-margin:0;shape-padding:0;text-decoration-color:#000000;text-decoration-line:none;text-decoration-style:solid;text-indent:0;text-orientation:mixed;text-transform:none;white-space:normal"/>
     <path d="m81.145 188.74c-8.0454 0-14.815 6.6491-14.815 14.551 0 7.9017 6.7701 14.553 14.815 14.553h118.54c8.0454 0 14.815-6.6511 14.815-14.553 0-7.9017-6.7701-14.551-14.815-14.551z" color="#000000" color-rendering="auto" dominant-baseline="auto" fill="#00002b" image-rendering="auto" opacity=".99" solid-color="#000000" stop-color="#000000" style="font-feature-settings:normal;font-variant-alternates:normal;font-variant-caps:normal;font-variant-east-asian:normal;font-variant-ligatures:normal;font-variant-numeric:normal;font-variant-position:normal;font-variation-settings:normal;inline-size:0;isolation:auto;mix-blend-mode:normal;shape-margin:0;shape-padding:0;text-decoration-color:#000000;text-decoration-line:none;text-decoration-style:solid;text-indent:0;text-orientation:mixed;text-transform:none;white-space:normal"/>
     <path d="m117.98 240.87c-8.3489 0-15.376 6.6511-15.376 14.553 0 7.9017 7.0275 14.551 15.376 14.551h117.42c8.3489 0 15.376-6.6491 15.376-14.551 0-7.9017-7.0275-14.553-15.376-14.553z" color="#000000" color-rendering="auto" dominant-baseline="auto" fill="#002b00" image-rendering="auto" opacity=".99" solid-color="#000000" stop-color="#000000" style="font-feature-settings:normal;font-variant-alternates:normal;font-variant-caps:normal;font-variant-east-asian:normal;font-variant-ligatures:normal;font-variant-numeric:normal;font-variant-position:normal;font-variation-settings:normal;inline-size:0;isolation:auto;mix-blend-mode:normal;shape-margin:0;shape-padding:0;text-decoration-color:#000000;text-decoration-line:none;text-decoration-style:solid;text-indent:0;text-orientation:mixed;text-transform:none;white-space:normal"/>
     <path d="m246.28 103.71c-6.0852-5.1999-15.343-4.0676-20.327 1.7728l-120.08 140.74c-4.9831 5.8405-4.6486 15.167 1.4366 20.367 6.0852 5.1999 15.344 4.0704 20.327-1.7701l120.08-140.74c4.9831-5.8405 4.6483-15.17-1.4368-20.37z" color="#000000" color-rendering="auto" dominant-baseline="auto" fill="#0f0" image-rendering="auto" opacity=".99" solid-color="#000000" stop-color="#000000" style="font-feature-settings:normal;font-variant-alternates:normal;font-variant-caps:normal;font-variant-east-asian:normal;font-variant-ligatures:normal;font-variant-numeric:normal;font-variant-position:normal;font-variation-settings:normal;inline-size:0;isolation:auto;mix-blend-mode:normal;shape-margin:0;shape-padding:0;text-decoration-color:#000000;text-decoration-line:none;text-decoration-style:solid;text-indent:0;text-orientation:mixed;text-transform:none;white-space:normal"/>
    </g>
   </g>
  </g>
 </g>
 <text font-family="FreeSerif" font-size="10.583px" style="line-height:1.25;shape-inside:url(#rect1483);white-space:pre" xml:space="preserve"/>
 <text font-family="FreeSerif" font-size="10.583px" style="line-height:1.25;shape-inside:url(#rect1489);white-space:pre" xml:space="preserve"/>
</svg>
