<?xml version="1.0" encoding="UTF-8" standalone="no"?>
<svg
   width="1200"
   height="1200"
   viewBox="0 0 1200 1200"
   version="1.1"
   id="svg8"
   inkscape:version="1.1.2 (0a00cf5339, 2022-02-04)"
   sodipodi:docname="inkscape-zoralab-salut-1200x1200.svg"
   xmlns:inkscape="http://www.inkscape.org/namespaces/inkscape"
   xmlns:sodipodi="http://sodipodi.sourceforge.net/DTD/sodipodi-0.dtd"
   xmlns="http://www.w3.org/2000/svg"
   xmlns:svg="http://www.w3.org/2000/svg"
   xmlns:rdf="http://www.w3.org/1999/02/22-rdf-syntax-ns#"
   xmlns:cc="http://creativecommons.org/ns#"
   xmlns:dc="http://purl.org/dc/elements/1.1/">
  <defs
     id="defs2">
    <linearGradient
       id="linearGradient4253"
       inkscape:swatch="solid">
      <stop
         style="stop-color:#2c2ca0;stop-opacity:1;"
         offset="0"
         id="stop4251" />
    </linearGradient>
    <rect
       x="131.14299"
       y="13.856486"
       width="183.27531"
       height="14.454085"
       id="rect1495" />
    <rect
       x="271.99814"
       y="94.906273"
       width="23.218782"
       height="27.683262"
       id="rect1489" />
    <rect
       x="227.45917"
       y="25.503441"
       width="0"
       height="16.920668"
       id="rect1483" />
    <rect
       x="163.021"
       y="27.195084"
       width="149.20512"
       height="80.913071"
       id="rect1477" />
    <marker
       style="overflow:visible"
       id="Arrow1Lend"
       refX="0"
       refY="0"
       orient="auto"
       inkscape:stockid="Arrow1Lend"
       inkscape:isstock="true">
      <path
         transform="matrix(-0.8,0,0,-0.8,-10,0)"
         style="fill-rule:evenodd;stroke:#000000;stroke-width:1pt"
         d="M 0,0 5,-5 -12.5,0 5,5 Z"
         id="path1602" />
    </marker>
    <marker
       style="overflow:visible"
       id="Arrow1Lstart"
       refX="0"
       refY="0"
       orient="auto"
       inkscape:stockid="Arrow1Lstart"
       inkscape:isstock="true">
      <path
         transform="matrix(0.8,0,0,0.8,10,0)"
         style="fill-rule:evenodd;stroke:#000000;stroke-width:1pt"
         d="M 0,0 5,-5 -12.5,0 5,5 Z"
         id="path1599" />
    </marker>
  </defs>
  <sodipodi:namedview
     id="base"
     pagecolor="#000000"
     bordercolor="#666666"
     borderopacity="1.0"
     inkscape:pageopacity="0"
     inkscape:pageshadow="2"
     inkscape:zoom="0.32"
     inkscape:cx="193.75"
     inkscape:cy="675"
     inkscape:document-units="px"
     inkscape:current-layer="layer1"
     inkscape:document-rotation="0"
     showgrid="false"
     units="px"
     inkscape:window-width="1920"
     inkscape:window-height="1019"
     inkscape:window-x="0"
     inkscape:window-y="0"
     inkscape:window-maximized="1"
     inkscape:pagecheckerboard="true"
     inkscape:lockguides="true" />
  <metadata
     id="metadata5">
    <rdf:RDF>
      <cc:Work
         rdf:about="">
        <dc:format>image/svg+xml</dc:format>
        <dc:type
           rdf:resource="http://purl.org/dc/dcmitype/StillImage" />
        <cc:license
           rdf:resource="http://creativecommons.org/licenses/by-nd/4.0/" />
      </cc:Work>
      <cc:License
         rdf:about="http://creativecommons.org/licenses/by-nd/4.0/">
        <cc:permits
           rdf:resource="http://creativecommons.org/ns#Reproduction" />
        <cc:permits
           rdf:resource="http://creativecommons.org/ns#Distribution" />
        <cc:requires
           rdf:resource="http://creativecommons.org/ns#Notice" />
        <cc:requires
           rdf:resource="http://creativecommons.org/ns#Attribution" />
      </cc:License>
    </rdf:RDF>
  </metadata>
  <g
     inkscape:label="Layer 1"
     inkscape:groupmode="layer"
     id="layer1">
    <g
       id="g15160">
      <circle
         style="fill:#ffffff;fill-opacity:1;stroke:#000080;stroke-width:49.17;stroke-linecap:round;stroke-linejoin:round;stroke-miterlimit:4;stroke-dasharray:none;stroke-dashoffset:0;stroke-opacity:1"
         id="path15528"
         cx="600"
         cy="600"
         r="575.41498" />
      <g
         aria-label="字"
         id="text8441"
         style="font-size:1466.67px;line-height:1.25;font-family:'Zhi Mang Xing';-inkscape-font-specification:'Zhi Mang Xing';fill:#00112b;stroke:#00ff00;stroke-width:15;stroke-miterlimit:4;stroke-dasharray:none"
         transform="translate(0,66.292396)">
        <path
           d="m 545.95853,274.95049 q 13.20003,0 57.20014,30.80007 44.0001,30.80007 46.93344,42.53343 10.26669,30.80007 -5.86668,71.86683 -14.6667,41.06676 -49.86678,80.66685 -46.93345,49.86678 -68.9335,82.13353 l -22.00005,32.26674 45.46677,32.26674 45.46678,29.3334 77.73351,-16.13337 q 77.73351,-14.6667 104.13357,-24.93339 17.60004,-7.33335 29.3334,-5.86668 11.73336,1.46667 32.26674,16.13337 35.20008,19.06671 49.86678,19.06671 13.20003,0 35.20009,26.40006 22.00005,24.93339 22.00005,41.06676 0,14.6667 -51.33346,14.6667 -49.86678,0 -123.20028,16.13337 -71.86683,14.6667 -90.93354,19.06671 -14.6667,2.93334 -17.60004,19.06671 -2.93334,14.6667 -2.93334,83.60019 0,70.40017 -4.40001,90.93355 -4.40001,20.53338 -27.86673,57.20013 -32.26674,51.3335 -67.46683,68.9335 -24.93339,13.2 -44.0001,13.2 -17.60004,0 -79.20018,-11.7333 -88.0002,-16.1334 -121.73361,-16.1334 -61.60014,0 -92.40022,-80.6669 Q 210.09109,971.61876 170.491,954.01872 125.02423,934.95201 72.22411,893.88525 20.890658,852.81848 23.823999,839.61845 25.290669,826.41842 116.22421,802.9517 208.62442,778.01831 267.29123,760.41827 L 327.4247,741.35156 V 670.9514 q 0,-51.33345 4.40001,-63.06681 4.40001,-11.73336 27.86673,-23.46672 33.73341,-14.6667 49.86678,-27.86673 16.13337,-16.13338 60.13347,-89.46688 45.46677,-74.80017 41.06676,-79.20018 -7.33335,-7.33335 -49.86678,35.20008 -48.40011,48.40011 -98.26689,64.53348 -49.86678,16.13337 -73.3335,-7.33335 -22.00005,-22.00005 -13.20003,-38.13342 10.26669,-16.13337 51.33345,-35.20008 55.73346,-23.46672 133.46697,-77.73351 77.73351,-54.26679 85.06686,-54.26679 z m -17.60004,528.00121 -49.86678,-4.40001 q -49.86678,-1.46667 -105.60024,22.00005 -55.73346,22.00005 -115.86693,41.06676 -42.53344,13.20003 -63.06682,22.00005 -20.53338,8.80003 -26.40006,19.06672 -4.40001,8.80002 5.86668,19.06671 11.73336,10.26669 38.13342,23.46672 45.46678,23.46672 86.53354,54.26679 33.73341,24.93341 54.26679,27.86671 20.53338,1.4667 86.53353,-16.1334 64.53348,-16.13332 79.20018,-38.13337 16.13337,-23.46672 13.20003,-98.2669 z M 114.75754,247.08376 q 42.53343,-61.60015 49.86678,-61.60015 17.60004,0 -7.33335,48.40012 -35.20008,68.93349 -41.06676,92.40021 -4.40001,22.00005 1.46667,76.26684 4.40001,44.0001 2.93334,60.13347 -1.46667,14.6667 -11.73336,22.00005 -17.600039,14.6667 -29.3334,4.40001 Q 69.29077,477.35095 61.95742,436.28419 42.890709,357.08401 114.75754,247.08376 Z M 629.55873,30.016589 q 89.46687,-35.2000808 112.93359,-35.2000808 19.06671,0 61.60014,24.9333908 44.0001,23.466721 58.6668,44.000101 27.86673,35.200081 -5.86668,67.46682 -33.73341,30.80007 -124.66695,52.80012 -89.46687,20.53338 -114.40026,20.53338 -14.6667,0 -14.6667,-4.40001 1.46667,-7.33335 45.46677,-46.93344 55.73346,-51.33345 49.86678,-58.666799 -7.33335,-16.13337 -93.86688,13.200029 -85.06687,29.3334 -143.73367,70.40016 -64.53348,44.0001 -96.80022,52.80013 -32.26674,7.33335 -52.80012,-13.20004 -7.33335,-7.33335 -14.6667,-22.00005 -5.86668,-16.13337 -10.26669,-27.86673 -2.93334,-13.20003 1.46667,-13.20003 2.93334,0 143.73366,-51.33345 142.267,-51.33345 198.00046,-73.333501 z M 381.69149,-34.516893 q -14.6667,-14.6667 -2.93334,-13.20003 24.93339,1.46667 58.6668,33.733411 33.73341,26.400061 33.73341,42.533431 Q 472.62503,43.21662 446.22497,62.28333 406.62488,90.150061 375.82481,74.016691 347.95808,57.88332 378.75815,34.416599 391.95818,22.683239 391.95818,0.68318835 393.42485,-22.783532 381.69149,-34.516893 Z"
           id="path31131"
           style="stroke:#00ff00;stroke-width:15;stroke-miterlimit:4;stroke-dasharray:none" />
      </g>
      <g
         id="g14824"
         transform="matrix(5.2460569,0,0,5.2460569,-241.18174,1270.2941)">
        <g
           id="g15035"
           transform="translate(-17.372646)">
          <g
             id="g15068"
             transform="translate(-6.363045,0.68094)">
            <g
               id="g15013"
               transform="matrix(0.28964612,0,0,0.28964612,212.26578,-252.94354)">
              <path
                 d="m 210.213,51.287 c -6.0852,-5.1999 -15.343,-4.0676 -20.327,1.7728 l -120.08,140.74 c -4.9831,5.8405 -4.6485,15.167 1.4366,20.367 6.0852,5.1999 15.344,4.0704 20.327,-1.7701 l 120.08,-140.74 c 4.9831,-5.8405 4.6483,-15.17 -1.4368,-20.37 z"
                 style="color:#000000;font-variant-ligatures:normal;font-variant-position:normal;font-variant-caps:normal;font-variant-numeric:normal;font-variant-alternates:normal;font-variant-east-asian:normal;font-feature-settings:normal;font-variation-settings:normal;text-indent:0;text-decoration-line:none;text-decoration-style:solid;text-decoration-color:#000000;text-transform:none;text-orientation:mixed;dominant-baseline:auto;white-space:normal;shape-padding:0;shape-margin:0;inline-size:0;opacity:0.99;isolation:auto;mix-blend-mode:normal;solid-color:#000000;fill:#000080;color-rendering:auto;image-rendering:auto;shape-rendering:auto;stop-color:#000000"
                 id="path4" />
              <path
                 d="m 90.003,47.53 c -7.9017,0 -14.553,6.6511 -14.553,14.553 0,7.9017 6.6511,14.551 14.553,14.551 h 110.64 c 7.9017,0 14.551,-6.6491 14.551,-14.551 0,-7.9019 -6.6491,-14.553 -14.551,-14.553 z"
                 style="color:#000000;font-variant-ligatures:normal;font-variant-position:normal;font-variant-caps:normal;font-variant-numeric:normal;font-variant-alternates:normal;font-variant-east-asian:normal;font-feature-settings:normal;font-variation-settings:normal;text-indent:0;text-decoration-line:none;text-decoration-style:solid;text-decoration-color:#000000;text-transform:none;text-orientation:mixed;dominant-baseline:auto;white-space:normal;shape-padding:0;shape-margin:0;inline-size:0;opacity:0.99;isolation:auto;mix-blend-mode:normal;solid-color:#000000;fill:#0000ff;color-rendering:auto;image-rendering:auto;shape-rendering:auto;stop-color:#000000"
                 id="path6" />
              <path
                 d="m 81.145,188.738 c -8.0454,0 -14.815,6.6491 -14.815,14.551 0,7.9017 6.7701,14.553 14.815,14.553 h 118.54 c 8.0454,0 14.815,-6.6511 14.815,-14.553 0,-7.9017 -6.7701,-14.551 -14.815,-14.551 z"
                 style="color:#000000;font-variant-ligatures:normal;font-variant-position:normal;font-variant-caps:normal;font-variant-numeric:normal;font-variant-alternates:normal;font-variant-east-asian:normal;font-feature-settings:normal;font-variation-settings:normal;text-indent:0;text-decoration-line:none;text-decoration-style:solid;text-decoration-color:#000000;text-transform:none;text-orientation:mixed;dominant-baseline:auto;white-space:normal;shape-padding:0;shape-margin:0;inline-size:0;opacity:0.99;isolation:auto;mix-blend-mode:normal;solid-color:#000000;fill:#00002b;color-rendering:auto;image-rendering:auto;shape-rendering:auto;stop-color:#000000"
                 id="path8" />
              <path
                 d="m 117.98,240.87 c -8.3489,0 -15.376,6.6511 -15.376,14.553 0,7.9017 7.0275,14.551 15.376,14.551 H 235.4 c 8.3489,0 15.376,-6.6491 15.376,-14.551 0,-7.9017 -7.0275,-14.553 -15.376,-14.553 z"
                 style="color:#000000;font-variant-ligatures:normal;font-variant-position:normal;font-variant-caps:normal;font-variant-numeric:normal;font-variant-alternates:normal;font-variant-east-asian:normal;font-feature-settings:normal;font-variation-settings:normal;text-indent:0;text-decoration-line:none;text-decoration-style:solid;text-decoration-color:#000000;text-transform:none;text-orientation:mixed;dominant-baseline:auto;white-space:normal;shape-padding:0;shape-margin:0;inline-size:0;opacity:0.99;isolation:auto;mix-blend-mode:normal;solid-color:#000000;fill:#002b00;color-rendering:auto;image-rendering:auto;shape-rendering:auto;stop-color:#000000"
                 id="path12" />
              <path
                 d="m 246.28,103.71 c -6.0852,-5.1999 -15.343,-4.0676 -20.327,1.7728 l -120.08,140.74 c -4.9831,5.8405 -4.6486,15.167 1.4366,20.367 6.0852,5.1999 15.344,4.0704 20.327,-1.7701 l 120.08,-140.74 c 4.9831,-5.8405 4.6483,-15.17 -1.4368,-20.37 z"
                 style="color:#000000;font-variant-ligatures:normal;font-variant-position:normal;font-variant-caps:normal;font-variant-numeric:normal;font-variant-alternates:normal;font-variant-east-asian:normal;font-feature-settings:normal;font-variation-settings:normal;text-indent:0;text-decoration-line:none;text-decoration-style:solid;text-decoration-color:#000000;text-transform:none;text-orientation:mixed;dominant-baseline:auto;white-space:normal;shape-padding:0;shape-margin:0;inline-size:0;opacity:0.99;isolation:auto;mix-blend-mode:normal;solid-color:#000000;fill:#00ff00;color-rendering:auto;image-rendering:auto;shape-rendering:auto;stop-color:#000000"
                 id="path14" />
            </g>
          </g>
        </g>
      </g>
    </g>
    <text
       xml:space="preserve"
       id="text1481"
       style="font-size:10.5833px;line-height:1.25;font-family:FreeSerif;-inkscape-font-specification:'FreeSerif, Normal';white-space:pre;shape-inside:url(#rect1483);stroke:none" />
    <text
       xml:space="preserve"
       id="text1487"
       style="font-size:10.5833px;line-height:1.25;font-family:FreeSerif;-inkscape-font-specification:'FreeSerif, Normal';white-space:pre;shape-inside:url(#rect1489);stroke:none" />
    <g
       aria-label="Z"
       transform="matrix(1.0269635,0,0,0.97374443,-258.09634,-17.017357)"
       id="text1007"
       style="font-weight:300;font-size:44.5719px;line-height:1.25;font-family:'Noto Sans';-inkscape-font-specification:'Noto Sans Light';fill:#002b00;stroke-width:0.264583;stroke:none" />
    <g
       aria-label="Z"
       transform="matrix(1.0269635,0,0,0.97374444,-254.9046,-17.301867)"
       id="text1007-5"
       style="font-weight:300;font-size:44.5719px;line-height:1.25;font-family:'Noto Sans';-inkscape-font-specification:'Noto Sans Light';fill:#002255;stroke-width:0.264583;stroke:none" />
    <g
       id="g1413"
       transform="translate(-260.28485,16.968656)"
       style="opacity:0.99;fill:none;stroke:none" />
  </g>
</svg>
