<svg width="1200" height="1200" version="1.1" viewBox="0 0 1200 1200" xmlns="http://www.w3.org/2000/svg">
	<g transform="matrix(1.0435 0 0 1.0435 -327.2 -973.25)">
		<g transform="matrix(2.4725 0 0 2.4725 815.14 815.18)">
			<path d="m81.145 188.74c-8.0454 0-14.815 6.6491-14.815 14.551 0 7.9017 6.7701 14.553 14.815 14.553h118.54c8.0454 0 14.815-6.6511 14.815-14.553 0-7.9017-6.7701-14.551-14.815-14.551z" style="color-rendering:auto;color:#000000;dominant-baseline:auto;font-feature-settings:normal;font-variant-alternates:normal;font-variant-caps:normal;font-variant-east-asian:normal;font-variant-ligatures:normal;font-variant-numeric:normal;font-variant-position:normal;font-variation-settings:normal;image-rendering:auto;inline-size:0;isolation:auto;mix-blend-mode:normal;opacity:.99;shape-margin:0;shape-padding:0;shape-rendering:auto;solid-color:#000000;stop-color:#000000;text-decoration-color:#000000;text-decoration-line:none;text-decoration-style:solid;text-indent:0;text-orientation:mixed;text-transform:none;white-space:normal"/>
			<path d="m117.98 240.87c-8.3489 0-15.376 6.6511-15.376 14.553 0 7.9017 7.0275 14.551 15.376 14.551h117.42c8.3489 0 15.376-6.6491 15.376-14.551 0-7.9017-7.0275-14.553-15.376-14.553z" style="color-rendering:auto;color:#000000;dominant-baseline:auto;font-feature-settings:normal;font-variant-alternates:normal;font-variant-caps:normal;font-variant-east-asian:normal;font-variant-ligatures:normal;font-variant-numeric:normal;font-variant-position:normal;font-variation-settings:normal;image-rendering:auto;inline-size:0;isolation:auto;mix-blend-mode:normal;opacity:.99;shape-margin:0;shape-padding:0;shape-rendering:auto;solid-color:#000000;stop-color:#000000;text-decoration-color:#000000;text-decoration-line:none;text-decoration-style:solid;text-indent:0;text-orientation:mixed;text-transform:none;white-space:normal"/>
			<path d="m210.21 51.287c-6.0852-5.1999-15.343-4.0676-20.327 1.7728l-120.08 140.74c-4.9831 5.8405-4.6485 15.167 1.4366 20.367 6.0852 5.1999 15.344 4.0704 20.327-1.7701l120.08-140.74c4.9831-5.8405 4.6483-15.17-1.4368-20.37z" style="color-rendering:auto;color:#000000;dominant-baseline:auto;font-feature-settings:normal;font-variant-alternates:normal;font-variant-caps:normal;font-variant-east-asian:normal;font-variant-ligatures:normal;font-variant-numeric:normal;font-variant-position:normal;font-variation-settings:normal;image-rendering:auto;inline-size:0;isolation:auto;mix-blend-mode:normal;opacity:.99;shape-margin:0;shape-padding:0;shape-rendering:auto;solid-color:#000000;stop-color:#000000;text-decoration-color:#000000;text-decoration-line:none;text-decoration-style:solid;text-indent:0;text-orientation:mixed;text-transform:none;white-space:normal"/>
			<path d="m90.003 47.53c-7.9017 0-14.553 6.6511-14.553 14.553 0 7.9017 6.6511 14.551 14.553 14.551h110.64c7.9017 0 14.551-6.6491 14.551-14.551s-6.6491-14.553-14.551-14.553z" style="color-rendering:auto;color:#000000;dominant-baseline:auto;font-feature-settings:normal;font-variant-alternates:normal;font-variant-caps:normal;font-variant-east-asian:normal;font-variant-ligatures:normal;font-variant-numeric:normal;font-variant-position:normal;font-variation-settings:normal;image-rendering:auto;inline-size:0;isolation:auto;mix-blend-mode:normal;opacity:.99;shape-margin:0;shape-padding:0;shape-rendering:auto;solid-color:#000000;stop-color:#000000;text-decoration-color:#000000;text-decoration-line:none;text-decoration-style:solid;text-indent:0;text-orientation:mixed;text-transform:none;white-space:normal"/>
			<path d="m246.28 103.71c-6.0852-5.1999-15.343-4.0676-20.327 1.7728l-120.08 140.74c-4.9831 5.8405-4.6486 15.167 1.4366 20.367 6.0852 5.1999 15.344 4.0704 20.327-1.7701l120.08-140.74c4.9831-5.8405 4.6483-15.17-1.4368-20.37z" style="color-rendering:auto;color:#000000;dominant-baseline:auto;font-feature-settings:normal;font-variant-alternates:normal;font-variant-caps:normal;font-variant-east-asian:normal;font-variant-ligatures:normal;font-variant-numeric:normal;font-variant-position:normal;font-variation-settings:normal;image-rendering:auto;inline-size:0;isolation:auto;mix-blend-mode:normal;opacity:.99;shape-margin:0;shape-padding:0;shape-rendering:auto;solid-color:#000000;stop-color:#000000;text-decoration-color:#000000;text-decoration-line:none;text-decoration-style:solid;text-indent:0;text-orientation:mixed;text-transform:none;white-space:normal"/>
		</g>
		<g transform="matrix(1.0966 0 0 1.0966 -101.94 -46.498)">
			<path transform="matrix(.91188 0 0 .91188 92.954 42.401)" d="m579.77 1187.7v71.406h-239.59l4.721 17.114h234.87v133.37c0 8.852-2.9506 11.803-13.573 11.803-14.163 0-91.47-4.721-91.47-4.721v8.2618c33.637 4.721 49.571 11.212 61.373 20.654 10.622 8.2618 14.163 21.245 17.114 39.539 74.356-7.0816 84.979-31.277 84.979-71.996v-136.91h227.79c8.2618 0 14.163-2.9507 15.933-9.4421-23.605-21.245-61.373-51.341-61.373-51.341l-34.227 43.67h-148.12v-48.981c12.983-1.7704 18.884-6.4914 20.064-15.343l-4.721-0.5902c38.949-15.933 78.487-38.358 109.17-57.833 11.803-0.5901 18.884-2.3605 23.605-7.0815l-57.243-50.161-32.457 33.047h-250.8l5.3112 17.114h239.59c-15.933 20.064-38.358 44.26-60.783 63.144zm-173.5-203.59c1.7704 36.588-20.064 72.586-40.129 86.749-16.524 9.442-26.556 25.966-18.884 43.079 9.4421 20.064 37.178 21.245 53.112 7.0815 16.524-13.573 28.326-40.719 27.146-77.897h368.83c-7.6717 19.474-17.704 42.489-25.966 57.833l5.9013 4.1309c26.556-12.393 62.554-34.228 83.208-51.341 12.393-1.1802 18.294-2.3605 23.605-6.4914l-55.472-53.112-31.867 31.867h-157.56v-67.865c15.343-2.3605 20.655-8.2618 21.245-16.524l-79.667-6.4914v90.88h-154.02c-1.7704-12.983-5.3112-27.146-10.622-41.899z" style="stroke-width:0" aria-label="字"/>
			<path transform="matrix(.91188 0 0 .91188 92.954 42.401)" d="m719.54 1634.4c42.661-1.9689 93.854 6.5633 116.83 40.692 6.5632 11.158 5.2506 17.064-2.6253 25.597-8.5322 8.5322-37.411 27.566-50.537 36.098l5.9069 9.8448c14.439-5.2506 41.348-15.095 54.475-16.408 19.033-2.6253 29.535 17.064 45.286 15.096 19.033-0.6563 27.566-15.752 26.909-33.473-1.3126-45.286-47.912-89.916-106.32-99.105-32.16-5.2506-61.695-0.6563-91.229 7.8759zm-318.97 299.28c-12.47 7.2195-21.659 10.501-38.723 8.5322-17.064-0.6563-21.659 4.5943-21.659 25.597 0 13.126 4.5943 25.597 15.095 36.754 7.8759 7.8759 16.408 13.126 26.253 13.126 11.158 0 18.377-9.8449 37.411-28.878 22.315 14.439 47.912 34.129 64.32 49.881 20.346 19.69 21.002 43.974 40.692 43.974 23.628 0 45.943-36.754 45.943-68.258 0-24.94-8.5322-47.255-11.814-140.45 49.224-29.535 106.32-55.788 156.86-55.788 69.57 0 97.792 40.036 97.792 86.635 0 53.162-36.754 91.886-96.48 91.886-44.63 0-77.446-17.721-101.73-39.38l-9.1886 9.1885c30.191 50.537 70.227 80.072 124.7 80.072 87.291 0 140.45-59.069 140.45-127.33 0-80.072-57.757-127.98-139.8-127.98-64.32 0-120.11 19.69-173.27 45.286v-23.628c0-25.597 1.3126-54.475 2.6253-82.041 32.816-10.501 72.852-23.628 96.48-35.442 15.095-7.8759 23.628-17.721 23.628-29.535-1.3126-24.284-34.785-24.94-43.974-24.94-11.158 0.6563-29.535 17.721-71.539 34.785 2.6253-22.971 5.2506-42.005 7.8759-54.475 4.5943-21.002 15.095-31.504 15.095-48.568 0-17.721-46.599-40.036-76.79-40.036-21.002 0-38.067 6.5632-54.475 17.721l1.3126 11.158c19.033 0.6563 33.473 1.9689 45.286 6.5632 10.501 3.938 14.439 6.5633 14.439 24.284v99.105c-26.253 7.2196-53.819 13.126-74.165 13.783-31.504 0.6564-44.63-5.9069-76.79-36.754l-9.8449 7.2196c22.315 65.632 53.819 77.446 90.573 77.446 18.377 0 46.599-5.2506 70.227-11.158v115.51c-45.286 25.597-95.167 64.32-116.83 76.134zm116.83-33.473v89.916c0 12.47-4.5943 17.721-18.377 13.126-17.721-5.9069-43.317-17.721-66.289-28.222 24.284-23.628 55.131-53.162 84.666-74.821z" style="stroke-width:0" aria-label="お"/>
			<path transform="matrix(.91188 0 0 .91188 92.954 42.401)" d="m1109.9 1546.3q-25.394 23.536-41.498 48.311-15.484 24.775-22.297 55.124-6.813 29.73-6.813 69.989 0 17.342 3.7162 34.065 4.3356 16.104 11.768 32.207 24.775-33.446 52.646-61.937 27.872-29.11 52.646-50.169 50.788-43.356 93.525-61.937 43.356-18.581 67.511-18.581 39.02 0 64.414 21.058 26.014 20.439 38.401 54.504 13.007 34.065 13.007 74.944 0 34.065-11.149 68.75-11.149 34.685-32.826 63.795-21.678 28.491-53.885 45.833t-74.944 17.342q-50.788 0-79.899-25.394-28.491-26.014-28.491-67.511 0-30.968 13.007-47.691 13.626-16.723 36.543-16.723 14.865 0 24.155 8.6712 9.2905 8.0518 9.2905 22.297 0 19.82-13.007 28.491-13.007 8.0518-29.11 9.9099-1.8581 5.5744-1.8581 12.387 0 25.394 19.82 38.401 19.82 12.387 44.595 12.387 31.588 0 52.027-16.104 20.439-16.104 32.826-40.878 12.387-24.775 17.962-50.169 6.1937-26.014 8.0518-46.453 1.8581-20.439 1.8581-27.252 0-8.6711-1.8581-25.394-1.8581-17.342-8.6711-35.304-6.8131-18.581-21.059-31.588-14.246-13.007-38.401-13.007-28.491 0-61.318 16.723-32.207 16.723-65.034 43.975-29.73 24.775-57.601 55.743-27.872 30.968-50.788 64.414 13.626 23.536 29.73 46.453 16.723 22.297 31.588 44.595t24.155 44.595q9.9099 22.917 9.9099 47.072 0 39.64-21.058 65.034-20.439 25.394-53.885 25.394-30.349 0-55.124-14.865-24.155-14.865-38.401-40.878-14.245-26.014-14.245-58.84 0-30.968 11.149-63.795 11.149-33.446 27.872-63.176-15.484-26.633-26.014-55.124-9.9099-29.11-9.9099-61.318 0-37.162 12.387-68.131 13.007-31.588 31.588-56.363 19.2-24.775 39.02-41.498 19.82-17.342 34.065-26.014zm-3.0968 470.1q0-25.394-11.149-50.169-11.149-24.155-27.872-48.93-16.723-25.394-34.065-52.027-13.626 26.633-21.058 52.646-7.4324 25.394-7.4324 47.072 0 29.11 11.768 49.55t28.491 30.968q16.723 11.149 30.968 11.149t22.297-10.529 8.0518-29.73z" style="stroke-width:0" aria-label="℘"/>
		</g>
	</g>
</svg>
