<svg width="1200" height="630" preserveAspectRatio="xMidYMid" version="1.1" viewBox="0 0 1200 630" xml:space="preserve" xmlns="http://www.w3.org/2000/svg"><rect width="1200" height="630" style="fill:#fff"/><g transform="matrix(1.1201 0 0 1.1201 -90.43 -34.518)" fill-rule="evenodd"><g transform="matrix(.2329 0 0 .2329 1.5062 -39.099)" style="fill:#fc0"><g transform="matrix(2.4725 0 0 2.4725 815.14 815.18)" style="fill:#fc0"><path d="m81.145 188.74c-8.0454 0-14.815 6.6491-14.815 14.551 0 7.9017 6.7701 14.553 14.815 14.553h118.54c8.0454 0 14.815-6.6511 14.815-14.553 0-7.9017-6.7701-14.551-14.815-14.551z" style="color-rendering:auto;color:#000000;dominant-baseline:auto;fill:#fc0;font-feature-settings:normal;font-variant-alternates:normal;font-variant-caps:normal;font-variant-east-asian:normal;font-variant-ligatures:normal;font-variant-numeric:normal;font-variant-position:normal;font-variation-settings:normal;image-rendering:auto;inline-size:0;isolation:auto;mix-blend-mode:normal;opacity:.99;shape-margin:0;shape-padding:0;shape-rendering:auto;solid-color:#000000;stop-color:#000000;text-decoration-color:#000000;text-decoration-line:none;text-decoration-style:solid;text-indent:0;text-orientation:mixed;text-transform:none;white-space:normal"/><path d="m117.98 240.87c-8.3489 0-15.376 6.6511-15.376 14.553 0 7.9017 7.0275 14.551 15.376 14.551h117.42c8.3489 0 15.376-6.6491 15.376-14.551 0-7.9017-7.0275-14.553-15.376-14.553z" style="color-rendering:auto;color:#000000;dominant-baseline:auto;fill:#fc0;font-feature-settings:normal;font-variant-alternates:normal;font-variant-caps:normal;font-variant-east-asian:normal;font-variant-ligatures:normal;font-variant-numeric:normal;font-variant-position:normal;font-variation-settings:normal;image-rendering:auto;inline-size:0;isolation:auto;mix-blend-mode:normal;opacity:.99;shape-margin:0;shape-padding:0;shape-rendering:auto;solid-color:#000000;stop-color:#000000;text-decoration-color:#000000;text-decoration-line:none;text-decoration-style:solid;text-indent:0;text-orientation:mixed;text-transform:none;white-space:normal"/><path d="m210.21 51.287c-6.0852-5.1999-15.343-4.0676-20.327 1.7728l-120.08 140.74c-4.9831 5.8405-4.6485 15.167 1.4366 20.367 6.0852 5.1999 15.344 4.0704 20.327-1.7701l120.08-140.74c4.9831-5.8405 4.6483-15.17-1.4368-20.37z" style="color-rendering:auto;color:#000000;dominant-baseline:auto;fill:#fc0;font-feature-settings:normal;font-variant-alternates:normal;font-variant-caps:normal;font-variant-east-asian:normal;font-variant-ligatures:normal;font-variant-numeric:normal;font-variant-position:normal;font-variation-settings:normal;image-rendering:auto;inline-size:0;isolation:auto;mix-blend-mode:normal;opacity:.99;shape-margin:0;shape-padding:0;shape-rendering:auto;solid-color:#000000;stop-color:#000000;text-decoration-color:#000000;text-decoration-line:none;text-decoration-style:solid;text-indent:0;text-orientation:mixed;text-transform:none;white-space:normal"/><path d="m90.003 47.53c-7.9017 0-14.553 6.6511-14.553 14.553 0 7.9017 6.6511 14.551 14.553 14.551h110.64c7.9017 0 14.551-6.6491 14.551-14.551s-6.6491-14.553-14.551-14.553z" style="color-rendering:auto;color:#000000;dominant-baseline:auto;fill:#fc0;font-feature-settings:normal;font-variant-alternates:normal;font-variant-caps:normal;font-variant-east-asian:normal;font-variant-ligatures:normal;font-variant-numeric:normal;font-variant-position:normal;font-variation-settings:normal;image-rendering:auto;inline-size:0;isolation:auto;mix-blend-mode:normal;opacity:.99;shape-margin:0;shape-padding:0;shape-rendering:auto;solid-color:#000000;stop-color:#000000;text-decoration-color:#000000;text-decoration-line:none;text-decoration-style:solid;text-indent:0;text-orientation:mixed;text-transform:none;white-space:normal"/><path d="m246.28 103.71c-6.0852-5.1999-15.343-4.0676-20.327 1.7728l-120.08 140.74c-4.9831 5.8405-4.6486 15.167 1.4366 20.367 6.0852 5.1999 15.344 4.0704 20.327-1.7701l120.08-140.74c4.9831-5.8405 4.6483-15.17-1.4368-20.37z" style="color-rendering:auto;color:#000000;dominant-baseline:auto;fill:#fc0;font-feature-settings:normal;font-variant-alternates:normal;font-variant-caps:normal;font-variant-east-asian:normal;font-variant-ligatures:normal;font-variant-numeric:normal;font-variant-position:normal;font-variation-settings:normal;image-rendering:auto;inline-size:0;isolation:auto;mix-blend-mode:normal;opacity:.99;shape-margin:0;shape-padding:0;shape-rendering:auto;solid-color:#000000;stop-color:#000000;text-decoration-color:#000000;text-decoration-line:none;text-decoration-style:solid;text-indent:0;text-orientation:mixed;text-transform:none;white-space:normal"/></g><g transform="matrix(1.0966 0 0 1.0966 -101.94 -46.498)" style="fill:#fc0"><path transform="matrix(.91188 0 0 .91188 92.954 42.401)" d="m579.77 1187.7v71.406h-239.59l4.721 17.114h234.87v133.37c0 8.852-2.9506 11.803-13.573 11.803-14.163 0-91.47-4.721-91.47-4.721v8.2618c33.637 4.721 49.571 11.212 61.373 20.654 10.622 8.2618 14.163 21.245 17.114 39.539 74.356-7.0816 84.979-31.277 84.979-71.996v-136.91h227.79c8.2618 0 14.163-2.9507 15.933-9.4421-23.605-21.245-61.373-51.341-61.373-51.341l-34.227 43.67h-148.12v-48.981c12.983-1.7704 18.884-6.4914 20.064-15.343l-4.721-0.5902c38.949-15.933 78.487-38.358 109.17-57.833 11.803-0.5901 18.884-2.3605 23.605-7.0815l-57.243-50.161-32.457 33.047h-250.8l5.3112 17.114h239.59c-15.933 20.064-38.358 44.26-60.783 63.144zm-173.5-203.59c1.7704 36.588-20.064 72.586-40.129 86.749-16.524 9.442-26.556 25.966-18.884 43.079 9.4421 20.064 37.178 21.245 53.112 7.0815 16.524-13.573 28.326-40.719 27.146-77.897h368.83c-7.6717 19.474-17.704 42.489-25.966 57.833l5.9013 4.1309c26.556-12.393 62.554-34.228 83.208-51.341 12.393-1.1802 18.294-2.3605 23.605-6.4914l-55.472-53.112-31.867 31.867h-157.56v-67.865c15.343-2.3605 20.655-8.2618 21.245-16.524l-79.667-6.4914v90.88h-154.02c-1.7704-12.983-5.3112-27.146-10.622-41.899z" style="fill:#fc0;stroke-width:0" aria-label="字"/><path transform="matrix(.91188 0 0 .91188 92.954 42.401)" d="m719.54 1634.4c42.661-1.9689 93.854 6.5633 116.83 40.692 6.5632 11.158 5.2506 17.064-2.6253 25.597-8.5322 8.5322-37.411 27.566-50.537 36.098l5.9069 9.8448c14.439-5.2506 41.348-15.095 54.475-16.408 19.033-2.6253 29.535 17.064 45.286 15.096 19.033-0.6563 27.566-15.752 26.909-33.473-1.3126-45.286-47.912-89.916-106.32-99.105-32.16-5.2506-61.695-0.6563-91.229 7.8759zm-318.97 299.28c-12.47 7.2195-21.659 10.501-38.723 8.5322-17.064-0.6563-21.659 4.5943-21.659 25.597 0 13.126 4.5943 25.597 15.095 36.754 7.8759 7.8759 16.408 13.126 26.253 13.126 11.158 0 18.377-9.8449 37.411-28.878 22.315 14.439 47.912 34.129 64.32 49.881 20.346 19.69 21.002 43.974 40.692 43.974 23.628 0 45.943-36.754 45.943-68.258 0-24.94-8.5322-47.255-11.814-140.45 49.224-29.535 106.32-55.788 156.86-55.788 69.57 0 97.792 40.036 97.792 86.635 0 53.162-36.754 91.886-96.48 91.886-44.63 0-77.446-17.721-101.73-39.38l-9.1886 9.1885c30.191 50.537 70.227 80.072 124.7 80.072 87.291 0 140.45-59.069 140.45-127.33 0-80.072-57.757-127.98-139.8-127.98-64.32 0-120.11 19.69-173.27 45.286v-23.628c0-25.597 1.3126-54.475 2.6253-82.041 32.816-10.501 72.852-23.628 96.48-35.442 15.095-7.8759 23.628-17.721 23.628-29.535-1.3126-24.284-34.785-24.94-43.974-24.94-11.158 0.6563-29.535 17.721-71.539 34.785 2.6253-22.971 5.2506-42.005 7.8759-54.475 4.5943-21.002 15.095-31.504 15.095-48.568 0-17.721-46.599-40.036-76.79-40.036-21.002 0-38.067 6.5632-54.475 17.721l1.3126 11.158c19.033 0.6563 33.473 1.9689 45.286 6.5632 10.501 3.938 14.439 6.5633 14.439 24.284v99.105c-26.253 7.2196-53.819 13.126-74.165 13.783-31.504 0.6564-44.63-5.9069-76.79-36.754l-9.8449 7.2196c22.315 65.632 53.819 77.446 90.573 77.446 18.377 0 46.599-5.2506 70.227-11.158v115.51c-45.286 25.597-95.167 64.32-116.83 76.134zm116.83-33.473v89.916c0 12.47-4.5943 17.721-18.377 13.126-17.721-5.9069-43.317-17.721-66.289-28.222 24.284-23.628 55.131-53.162 84.666-74.821z" style="fill:#fc0;stroke-width:0" aria-label="お"/><path transform="matrix(.91188 0 0 .91188 92.954 42.401)" d="m1109.9 1546.3q-25.394 23.536-41.498 48.311-15.484 24.775-22.297 55.124-6.813 29.73-6.813 69.989 0 17.342 3.7162 34.065 4.3356 16.104 11.768 32.207 24.775-33.446 52.646-61.937 27.872-29.11 52.646-50.169 50.788-43.356 93.525-61.937 43.356-18.581 67.511-18.581 39.02 0 64.414 21.058 26.014 20.439 38.401 54.504 13.007 34.065 13.007 74.944 0 34.065-11.149 68.75-11.149 34.685-32.826 63.795-21.678 28.491-53.885 45.833t-74.944 17.342q-50.788 0-79.899-25.394-28.491-26.014-28.491-67.511 0-30.968 13.007-47.691 13.626-16.723 36.543-16.723 14.865 0 24.155 8.6712 9.2905 8.0518 9.2905 22.297 0 19.82-13.007 28.491-13.007 8.0518-29.11 9.9099-1.8581 5.5744-1.8581 12.387 0 25.394 19.82 38.401 19.82 12.387 44.595 12.387 31.588 0 52.027-16.104 20.439-16.104 32.826-40.878 12.387-24.775 17.962-50.169 6.1937-26.014 8.0518-46.453 1.8581-20.439 1.8581-27.252 0-8.6711-1.8581-25.394-1.8581-17.342-8.6711-35.304-6.8131-18.581-21.059-31.588-14.246-13.007-38.401-13.007-28.491 0-61.318 16.723-32.207 16.723-65.034 43.975-29.73 24.775-57.601 55.743-27.872 30.968-50.788 64.414 13.626 23.536 29.73 46.453 16.723 22.297 31.588 44.595t24.155 44.595q9.9099 22.917 9.9099 47.072 0 39.64-21.058 65.034-20.439 25.394-53.885 25.394-30.349 0-55.124-14.865-24.155-14.865-38.401-40.878-14.245-26.014-14.245-58.84 0-30.968 11.149-63.795 11.149-33.446 27.872-63.176-15.484-26.633-26.014-55.124-9.9099-29.11-9.9099-61.318 0-37.162 12.387-68.131 13.007-31.588 31.588-56.363 19.2-24.775 39.02-41.498 19.82-17.342 34.065-26.014zm-3.0968 470.1q0-25.394-11.149-50.169-11.149-24.155-27.872-48.93-16.723-25.394-34.065-52.027-13.626 26.633-21.058 52.646-7.4324 25.394-7.4324 47.072 0 29.11 11.768 49.55t28.491 30.968q16.723 11.149 30.968 11.149t22.297-10.529 8.0518-29.73z" style="fill:#fc0;stroke-width:0" aria-label="℘"/></g></g><path d="m395.12 417.09v28.882h-1.6142l-37.472-25.25v23.809h-2.0754v-26.749h1.6142l37.472 25.193v-25.885zm-20.639-41.853q6.2261 0 11.011 2.0177t7.4944 6.1108q2.7095 4.0355 2.7095 10.146 0 6.0532-2.7095 10.146-2.7095 4.0355-7.4944 6.0532t-11.069 2.0177q-6.2261 0-10.953-2.0754-4.7849-2.133-7.4368-6.2838-2.7095-4.1508-2.7095-10.146 0-8.6474 5.6496-13.317 5.592-4.6696 15.508-4.6696zm-0.0576 34.186q5.6496 0 9.9734-1.7295 4.3237-1.7295 6.8026-5.2461 2.4213-3.5743 2.4213-8.9933t-2.4213-8.9357q-2.4213-3.5166-6.6873-5.1884-4.3237-1.7295-10.031-1.7295-9.051 0-14.066 4.0355-5.0155 3.9778-5.0155 11.588 0 5.4767 2.4213 9.051 2.4213 3.5743 6.745 5.3614 4.266 1.7871 9.858 1.7871zm-20.466-53.326q0-7.2062 2.4213-10.953 2.3636-3.7472 8.6474-3.7472 4.6696 0 7.4368 2.4789 2.7095 2.4789 3.8625 6.6297l18.794-11.299v2.7095l-18.16 10.838v10.723h18.16v2.2483h-41.162zm2.0754 0.28824v7.0909h18.909v-8.7051q0-5.0155-2.5366-8.0133-2.5942-2.9978-7.3215-2.9978-5.1885 0-7.0909 3.1131-1.9601 3.1131-1.9601 9.5122zm39.086-50.155-15.047 5.765v17.583l15.047 5.8802v2.3636l-41.277-16.2v-2.133l41.277-15.623zm-33.321 12.568q-0.98005 0.28825-2.3636 0.80709-1.4412 0.51884-2.9401 1.0377 1.3836 0.40354 2.8248 0.92239 1.3836 0.51885 2.4789 0.98004l16.199 6.2261v-15.969zm33.321-20.869h-41.162v-2.2483h39.086v-20.062h2.0754zm-31.073-39.029q0-4.9002 2.5942-7.3215 2.5366-2.4789 8.1286-2.4789h20.35v1.7871l-5.6496 0.40355v0.11536q2.6519 1.3836 4.439 3.9202 1.7871 2.4789 1.7871 7.0332 0 4.4966-2.1907 6.9179-2.1907 2.3636-6.0532 2.3636-4.5543 0-6.8603-3.7472-2.3636-3.8049-2.7095-10.78l-0.34589-5.7649h-2.306q-4.9578 0-7.0332 1.9024-2.133 1.9024-2.133 5.7073 0 4.439 2.306 9.051l-1.9601 0.6918q-1.0377-2.1907-1.6718-4.6696-0.6918-2.4789-0.6918-5.1308zm15.623-2.0177q0.28825 5.8802 2.133 9.1663t5.6496 3.286q2.9978 0 4.6696-1.9024 1.6142-1.9024 1.6142-5.3038 0-5.419-3.0554-8.0709-3.1131-2.6519-8.1862-2.7095h-3.0554zm-15.392-19.831q1.4989 0 3.459 0.0576 1.9601 0.0576 3.286 0.11524v-0.17295q-3.0554-1.0377-5.0155-3.8625-2.0177-2.8825-2.0177-7.0909 0-5.9955 4.0355-9.1663 3.9778-3.1707 11.76-3.1707 4.5543 0 8.1862 1.4412 3.5743 1.3836 5.6496 4.3237 2.0754 2.8825 2.0754 7.3215 0 4.0355-1.7295 6.572-1.7871 2.4789-4.439 3.5743v0.17295l5.592 0.3459v1.7871h-43.814v-2.2483zm1.7295-10.78q0 5.592 3.6319 8.1862 3.6319 2.5942 10.204 2.5942h0.51884q6.5144 0 9.9157-2.4213 3.4013-2.4213 3.4013-7.6097 0-5.419-3.6319-8.1862t-10.319-2.7672q-13.721 0-13.721 10.204zm-12.049-21.849 14.874 0.40354v1.5565l-14.874 0.46119zm33.264-26.288q3.9778 0 6.2261 2.9978 2.2483 2.9401 2.2483 8.6474 0 3.1707-0.57649 5.7073-0.5765 2.5366-1.3836 4.2084h-2.306q1.0953-2.1907 1.7295-4.7273 0.5765-2.5366 0.5765-5.2461 0-4.9579-1.7295-7.1485-1.7295-2.1907-4.6696-2.1907-2.0177 0-3.286 1.153-1.2683 1.0953-2.133 3.1131-0.86473 2.0177-1.6718 4.612-0.92239 2.7672-1.7871 4.9578-0.92239 2.1907-2.4213 3.459-1.5565 1.2683-4.3237 1.2683-3.6319 0-5.6496-2.8825-2.0754-2.9401-2.0754-7.8403 0-2.7095 0.51883-5.0732 0.51885-2.3636 1.326-4.2661l1.9601 0.86475q-0.80709 1.6718-1.2683 3.9778-0.51883 2.306-0.51883 4.5543 0 3.9778 1.4412 6.2261 1.3836 2.1907 4.2084 2.1907 2.133 0 3.286-1.0953 1.153-1.0953 1.9024-2.9978 0.69179-1.9024 1.5565-4.3814 0.86474-2.6519 1.8448-4.9002 0.92239-2.306 2.5366-3.7472 1.6142-1.4412 4.439-1.4412z" style="stroke-linecap:round;stroke-linejoin:round;stroke-width:.27023" aria-label="ZORALab's"/><path d="m417.56 444.96h-14.104v-266.83h136.46v14.104h-122.36v97.582h122.36v14.104h-122.36zm291.22-102.54q0 25.92-4.9554 45.742-4.9554 19.44-12.579 30.113-7.2424 10.673-17.534 17.153-25.92 16.772-56.796 6.8613-10.673-3.4306-22.49-12.198-11.817-9.1483-19.059-28.589t-7.2424-47.648q0-45.742 18.297-74.33 18.297-28.97 52.603-28.97 34.687 0 51.841 27.064 17.534 27.064 17.916 64.801zm-74.711 89.196 4.5742 0.38118 4.193-0.38118q51.841-4.9554 51.841-87.29 0-33.925-13.723-56.796-13.723-22.871-43.836-22.871-19.44 0-32.4 13.341-22.49 23.633-22.49 73.568v3.0494q0 31.638 12.96 53.365 12.96 21.346 38.88 23.633zm234.05 13.341 0.38119-100.63q0-32.019-15.628-55.652-15.247-24.014-38.499-24.014-22.871 0-50.697 31.638v148.66h-14.104v-190.59h14.104v22.871q24.777-26.683 53.747-26.683 19.44 0 40.405 18.297 10.673 9.9107 17.534 29.351 7.2424 19.44 7.2424 45.742l-0.38118 101.01zm77.761-176.49h-43.836v-14.104h43.836v-62.895h14.104v62.895h44.217v14.104h-44.217v176.49h-14.104zm150.95 157.05q23.252-6.0989 32.019-15.628 9.1483-9.5295 9.1483-25.539 0-16.391-12.198-25.539-12.198-9.1484-29.732-11.817-17.153-2.6683-34.688-5.7177-17.153-3.4306-29.351-14.485t-12.198-32.019q0-44.217 68.613-44.217 25.158 0 58.321 5.3365v14.866q-34.306-6.0989-57.558-6.0989-23.252 0-39.643 6.8613-16.01 6.4801-16.01 22.49 0 15.628 12.198 24.396 12.198 8.386 29.351 11.817 17.534 3.0494 35.069 7.2424t29.732 16.772q12.198 12.198 12.198 34.687 0 27.826-21.727 40.024-10.673 6.0989-20.584 9.9107-9.9107 3.4306-26.302 4.5742-25.92 2.2871-49.554 2.2871h-9.5295v-14.104q49.554 0 72.424-6.0989z" style="stroke-width:0" aria-label="Fonts"/></g></svg>
